# xmcd
#
# Track frame offsets:
# 150
# 21642
# 35931
# 57147
# 73925
# 87424
# 106418
# 128069
# 145367
#
# Disc length: 2168 seconds
#
#
# Revision: 0
# Processed by: cddbd v1.5.2PL0 Copyright (c) Steve Scherf et al.
# Submitted via: FreeRIP 2.941 
#
DISCID=8b087609
DTITLE=Bobbie Mercy Oliver - Mississippi Mudd
DYEAR=2006
DGENRE=Blues
TTITLE0=Hex On Me - Remix - Part 1
TTITLE1=Ramblin' Mind
TTITLE2=Highway 61
TTITLE3=First Luv
TTITLE4=Mississippi Mudd
TTITLE5=Luv is the Loc
TTITLE6=Hex On Me - Part 11
TTITLE7=I Like Pretty Women
TTITLE8=Jazzy Harmonica Blues
EXTD=
EXTT0=
EXTT1=
EXTT2=
EXTT3=
EXTT4=
EXTT5=
EXTT6=
EXTT7=
EXTT8=
PLAYORDER=
